<svg xmlns="http://www.w3.org/2000/svg" xmlns:xlink="http://www.w3.org/1999/xlink" viewBox="0 0 150.2 72.9"><defs><style>.a{fill:url(#a);}</style><linearGradient id="a" x1="48.07" y1="378.73" x2="104.09" y2="281.69" gradientTransform="matrix(1, 0, 0, -1, 0, 366.58)" gradientUnits="userSpaceOnUse"><stop offset="0.3" stop-color="#c4d600"/><stop offset="0.7" stop-color="#00a1df"/></linearGradient></defs><title>Recurso 4xhdpi</title><path class="a" d="M115.9,0C94.6,0,80.5,17.4,68,32.8,57.4,45.9,47.4,58.3,35.1,58.3c-12.7,0-20.5-13.1-20.5-22.4,0-8.7,8.6-21.3,22-21.3,13,0,19.8,10.4,20.1,11A7.27,7.27,0,0,0,69.1,18C68.7,17.2,58,0,36.6,0,15,0,0,18.9,0,35.9c0,17.5,14.4,37,35.1,37,19.2,0,31.9-15.7,44.3-31,11.4-14.1,22.2-27.4,36.5-27.4,8.5,0,14.1,2.9,17.1,8.8,2.6,5.2,2.6,11,2.6,13a29.84,29.84,0,0,1-3.5,12.2c-3.2,6-7.8,8.7-14.5,8.7-13.4,0-20.6-8.7-23.3-12a9.2,9.2,0,0,0-1.9-2A7.29,7.29,0,0,0,82.6,54c.1.2.3.3.5.6,3.5,4.3,14.3,17.2,34.6,17.2,24.6,0,32.5-24,32.5-35.7q0-11.25-4.2-19.5C142.2,9.2,133.8,0,115.9,0Z"/></svg>