<svg xmlns="http://www.w3.org/2000/svg" viewBox="0 0 86.6 86.6"><defs><style>.a{fill:#353535;}.b{fill:none;stroke:#363636;stroke-miterlimit:10;stroke-width:5px;}</style></defs><title>Recurso 1xhdpi</title><path class="a" d="M59.75,30.4c-8.7,0-14.4,7.1-19.5,13.4-4.3,5.3-8.4,10.3-13.4,10.3-5.2,0-8.4-5.3-8.4-9.1,0-3.5,3.5-8.7,9-8.7a9.88,9.88,0,0,1,8.2,4.5,3,3,0,1,0,5.1-3.1c-.2-.3-4.5-7.3-13.2-7.3A15.14,15.14,0,0,0,12.65,45c0,7.1,5.9,15.1,14.3,15.1,7.8,0,13-6.4,18.1-12.6,4.6-5.7,9-11.2,14.9-11.2,3.5,0,5.7,1.2,7,3.6a11.21,11.21,0,0,1-.3,10.3,6.17,6.17,0,0,1-5.9,3.5,11.74,11.74,0,0,1-9.5-4.9,3.32,3.32,0,0,0-5-.5,3.07,3.07,0,0,0,.2,4.1c0,.1.1.1.2.2a17.48,17.48,0,0,0,14.1,7c10,0,13.2-9.8,13.2-14.5a17.39,17.39,0,0,0-1.7-7.9C70.45,34.1,67.05,30.4,59.75,30.4Z"/><circle class="b" cx="43.3" cy="43.3" r="40.8"/></svg>