<svg xmlns="http://www.w3.org/2000/svg" viewBox="0 0 61.3 29.7"><defs><style>.a{fill:#353535;}</style></defs><title>Recurso 2xhdpi</title><path class="a" d="M47.1,0C38.4,0,32.7,7.1,27.6,13.4c-4.3,5.3-8.4,10.3-13.4,10.3-5.2,0-8.4-5.3-8.4-9.1,0-3.5,3.5-8.7,9-8.7A9.88,9.88,0,0,1,23,10.4a3,3,0,1,0,5.1-3.1C27.9,7,23.6,0,14.9,0A15.14,15.14,0,0,0,0,14.6c0,7.1,5.9,15.1,14.3,15.1,7.8,0,13-6.4,18.1-12.6,4.6-5.7,9-11.2,14.9-11.2,3.5,0,5.7,1.2,7,3.6a11.66,11.66,0,0,1,1.1,5.3,11.67,11.67,0,0,1-1.4,5,6.17,6.17,0,0,1-5.9,3.5,11.74,11.74,0,0,1-9.5-4.9,3,3,0,0,0-.8-.8,3,3,0,0,0-4.2.3,3.07,3.07,0,0,0,.2,4.1c0,.1.1.1.2.2a17.48,17.48,0,0,0,14.1,7c10,0,13.2-9.8,13.2-14.5a17.39,17.39,0,0,0-1.7-7.9C57.8,3.7,54.4,0,47.1,0Z"/></svg>