<svg xmlns="http://www.w3.org/2000/svg" viewBox="0 0 264.3 86.6"><defs><style>.a{fill:#353535;}.b{fill:none;stroke:#363636;stroke-miterlimit:10;stroke-width:5px;}.c{isolation:isolate;}.d{fill:#363636;}</style></defs><title>Recurso 2xhdpi</title><path class="a" d="M59.9,28.5c-8.7,0-14.4,7.1-19.5,13.4C36.1,47.2,32,52.2,27,52.2c-5.2,0-8.4-5.3-8.4-9.1,0-3.5,3.5-8.7,9-8.7a9.88,9.88,0,0,1,8.2,4.5,3,3,0,1,0,5.1-3.1c-.2-.3-4.5-7.3-13.2-7.3A15.14,15.14,0,0,0,12.8,43.1c0,7.1,5.9,15.1,14.3,15.1,7.8,0,13-6.4,18.1-12.6,4.6-5.7,9-11.2,14.9-11.2,3.5,0,5.7,1.2,7,3.6a11.21,11.21,0,0,1-.3,10.3,6.17,6.17,0,0,1-5.9,3.5,11.74,11.74,0,0,1-9.5-4.9,3.32,3.32,0,0,0-5-.5,3.07,3.07,0,0,0,.2,4.1c0,.1.1.1.2.2a17.48,17.48,0,0,0,14.1,7c10,0,13.2-9.8,13.2-14.5a17.39,17.39,0,0,0-1.7-7.9C70.6,32.2,67.2,28.5,59.9,28.5Z"/><circle class="b" cx="43.3" cy="43.3" r="40.8"/><g class="c"><path class="d" d="M118.73,34.49q3.1,0,3.65,1.71a7.68,7.68,0,0,1,.27,2.25,6.92,6.92,0,0,1-.29,2.23,2.11,2.11,0,0,1-.92,1.19,5.62,5.62,0,0,1-2.74.54l-2.88-.18V54.29a5.8,5.8,0,0,1-.43,2.54,2.12,2.12,0,0,1-1.31,1.1,7.92,7.92,0,0,1-2.27.27,6.89,6.89,0,0,1-2.23-.29,2.08,2.08,0,0,1-1.19-.94,3.38,3.38,0,0,1-.43-1.19,13.72,13.72,0,0,1-.07-1.58V42.28h-1.62a2.79,2.79,0,0,1-1.67-.54q-.85-.85-.85-3.29,0-3.69,2.66-3.69h1.48V32.38a9.27,9.27,0,0,1,2.48-6.28q2.47-2.81,7.15-2.81a13.1,13.1,0,0,1,1.55.07,3.6,3.6,0,0,1,1.19.43q1.22.58,1.21,3.46a5,5,0,0,1-.76,3.11,2.76,2.76,0,0,1-2,.81h-1.26q-1.67,0-1.67,1.13v2.47Z"/><path class="d" d="M147.53,43.47a5.47,5.47,0,0,1-1.37,4.09,4.28,4.28,0,0,1-3,1.33H132.45A2.47,2.47,0,0,0,133.94,51a5.91,5.91,0,0,0,3,.86,12.4,12.4,0,0,0,4.09-.54l.5-.18a4.54,4.54,0,0,1,1.8-.5q1.44,0,2.47,2a5,5,0,0,1,.59,2.07q0,4-9.59,4a14.47,14.47,0,0,1-5.92-1.15,10,10,0,0,1-4-3A12.94,12.94,0,0,1,124,46.42a11.77,11.77,0,0,1,3.67-9.07,13,13,0,0,1,9.16-3.4q6.25,0,9.18,4.41A9.15,9.15,0,0,1,147.53,43.47ZM138,44.8q1.71,0,1.71-1.44a2,2,0,0,0-.79-1.67,3.53,3.53,0,0,0-2.25-.63,4.55,4.55,0,0,0-2.9,1.19,3.35,3.35,0,0,0-1.44,2.54Z"/><path class="d" d="M173.31,43.47a5.47,5.47,0,0,1-1.37,4.09,4.28,4.28,0,0,1-3,1.33H158.24A2.47,2.47,0,0,0,159.72,51a5.91,5.91,0,0,0,3,.86,12.4,12.4,0,0,0,4.09-.54l.5-.18a4.54,4.54,0,0,1,1.8-.5q1.44,0,2.47,2a5,5,0,0,1,.59,2.07q0,4-9.59,4a14.47,14.47,0,0,1-5.92-1.15,10,10,0,0,1-4-3,12.94,12.94,0,0,1-2.83-8.15,11.77,11.77,0,0,1,3.67-9.07A13,13,0,0,1,162.6,34q6.25,0,9.18,4.41A9.15,9.15,0,0,1,173.31,43.47Zm-9.5,1.33q1.71,0,1.71-1.44a2,2,0,0,0-.79-1.67,3.53,3.53,0,0,0-2.25-.63,4.55,4.55,0,0,0-2.9,1.19,3.35,3.35,0,0,0-1.44,2.54Z"/><path class="d" d="M192.14,24.57a1.91,1.91,0,0,1,1.19-.92,9.68,9.68,0,0,1,4.54,0,1.89,1.89,0,0,1,1.19.94,3.88,3.88,0,0,1,.4,1.19,13.11,13.11,0,0,1,.07,1.55V54.2a13.09,13.09,0,0,1-.07,1.55,3.2,3.2,0,0,1-.43,1.15q-.68,1.21-3.8,1.21t-3.49-2.2a6.63,6.63,0,0,1-5.27,2.16,10,10,0,0,1-7.38-3.53,11.85,11.85,0,0,1,0-16.49,10,10,0,0,1,7.36-3.55,6.32,6.32,0,0,1,5.17,2.25V27.29a13,13,0,0,1,.07-1.55A3.64,3.64,0,0,1,192.14,24.57ZM184.83,49a3.79,3.79,0,0,0,2.83,1.21A3.58,3.58,0,0,0,190.43,49a3.9,3.9,0,0,0,1.1-2.68,4.16,4.16,0,0,0-1.06-2.72,3.54,3.54,0,0,0-2.86-1.26,3.63,3.63,0,0,0-2.88,1.24,4,4,0,0,0-1.08,2.72A3.81,3.81,0,0,0,184.83,49Z"/><path class="d" d="M210.89,37.6Q213,34.4,216,34.4a7.38,7.38,0,0,1,6.84,3.92A15.25,15.25,0,0,1,224,36.9a9.81,9.81,0,0,1,2.23-1.62,6.25,6.25,0,0,1,3.15-.88,7.7,7.7,0,0,1,6,2.77q2.43,2.77,2.43,9.16V54.2a13.09,13.09,0,0,1-.07,1.55,3.62,3.62,0,0,1-.43,1.19q-.59,1.21-3.46,1.21t-3.47-1.26a4.17,4.17,0,0,1-.38-1.19,13.09,13.09,0,0,1-.07-1.55V46.28q0-3.92-2.79-3.92a2.21,2.21,0,0,0-2.14,1,6.21,6.21,0,0,0-.56,2.92V54.2a13,13,0,0,1-.07,1.58,3.62,3.62,0,0,1-.43,1.17q-.63,1.21-3.51,1.21T217,56.9a4.16,4.16,0,0,1-.38-1.19,13.09,13.09,0,0,1-.07-1.55V46.28q0-3.92-2.79-3.92t-2.7,3.92v8A13.07,13.07,0,0,1,211,55.8a3.61,3.61,0,0,1-.43,1.19q-.68,1.17-3.51,1.17t-3.46-1.21a4.19,4.19,0,0,1-.38-1.17,12.89,12.89,0,0,1-.07-1.58V38.36a13,13,0,0,1,.07-1.55,3.2,3.2,0,0,1,.43-1.15q.68-1.21,3.2-1.21t3.28.81A3.28,3.28,0,0,1,210.89,37.6Z"/><path class="d" d="M264.3,43.47a5.47,5.47,0,0,1-1.37,4.09,4.28,4.28,0,0,1-3,1.33H249.23A2.47,2.47,0,0,0,250.71,51a5.91,5.91,0,0,0,3,.86,12.4,12.4,0,0,0,4.09-.54l.5-.18a4.54,4.54,0,0,1,1.8-.5q1.44,0,2.47,2a5,5,0,0,1,.59,2.07q0,4-9.59,4a14.47,14.47,0,0,1-5.92-1.15,10,10,0,0,1-4-3,12.94,12.94,0,0,1-2.83-8.15,11.77,11.77,0,0,1,3.67-9.07,13,13,0,0,1,9.16-3.4q6.25,0,9.18,4.41A9.15,9.15,0,0,1,264.3,43.47Zm-9.5,1.33q1.71,0,1.71-1.44a2,2,0,0,0-.79-1.67,3.53,3.53,0,0,0-2.25-.63,4.55,4.55,0,0,0-2.9,1.19,3.35,3.35,0,0,0-1.44,2.54Z"/></g></svg>